# xmcd
#
# Track frame offsets:
#	150
#	17836
#	34473
#	52098
#	69330
#	85402
#	104017
#	128403
#	145910
#	163167
#	184155
#
# Disc length: 2703 seconds
#
# Revision: 0
# Processed by: cddbd v1.5.2PL0 Copyright (c) Steve Scherf et al.
# Submitted via: EZCDAudioConverter 3.1.0.1
#
DISCID=9e0a8d0b
DTITLE=Marius Tilly Band - Come Together
DYEAR=2015
DGENRE=Blues Rocxk
TTITLE0=Believe
TTITLE1=Elevator Girl
TTITLE2=Hold On
TTITLE3=Hometones
TTITLE4=Fly
TTITLE5=Water Falls
TTITLE6=Take Off
TTITLE7=Headaches
TTITLE8=Sliding
TTITLE9=Skin's Electric
TTITLE10=Far Away
EXTD=
EXTT0=
EXTT1=
EXTT2=
EXTT3=
EXTT4=
EXTT5=
EXTT6=
EXTT7=
EXTT8=
EXTT9=
EXTT10=
PLAYORDER=
